<mxfile host="app.diagrams.net" modified="2023-08-04T09:13:58.992Z" agent="Mozilla/5.0 (Windows NT 10.0; Win64; x64; rv:102.0) Gecko/20100101 Firefox/102.0" etag="6y-XC61b0B7NKtyDFcqf" version="21.6.6" type="device">
  <diagram name="Seite-1" id="J6PCsGhJRRuIGUTLo6Si">
    <mxGraphModel dx="989" dy="539" grid="1" gridSize="10" guides="1" tooltips="1" connect="1" arrows="1" fold="1" page="1" pageScale="1" pageWidth="827" pageHeight="1169" math="0" shadow="0">
      <root>
        <mxCell id="0" />
        <mxCell id="1" parent="0" />
        <mxCell id="V9H647g_ZsTylHFqTL_g-5" value="create(n) " style="edgeStyle=orthogonalEdgeStyle;rounded=0;orthogonalLoop=1;jettySize=auto;html=1;" edge="1" parent="1" source="V9H647g_ZsTylHFqTL_g-2" target="V9H647g_ZsTylHFqTL_g-13">
          <mxGeometry x="-0.2" relative="1" as="geometry">
            <mxPoint x="120" y="320" as="targetPoint" />
            <Array as="points">
              <mxPoint x="150" y="330" />
              <mxPoint x="150" y="330" />
            </Array>
            <mxPoint as="offset" />
          </mxGeometry>
        </mxCell>
        <mxCell id="V9H647g_ZsTylHFqTL_g-2" value="User" style="shape=umlActor;verticalLabelPosition=bottom;verticalAlign=top;html=1;outlineConnect=0;" vertex="1" parent="1">
          <mxGeometry x="30" y="290" width="30" height="60" as="geometry" />
        </mxCell>
        <mxCell id="V9H647g_ZsTylHFqTL_g-7" value="generate scenarios" style="shape=umlFrame;whiteSpace=wrap;html=1;pointerEvents=0;width=80;height=30;" vertex="1" parent="1">
          <mxGeometry x="170" y="240" width="720" height="370" as="geometry" />
        </mxCell>
        <mxCell id="V9H647g_ZsTylHFqTL_g-8" value=":workflow" style="shape=umlLifeline;perimeter=lifelinePerimeter;whiteSpace=wrap;html=1;container=1;dropTarget=0;collapsible=0;recursiveResize=0;outlineConnect=0;portConstraint=eastwest;newEdgeStyle={&quot;edgeStyle&quot;:&quot;elbowEdgeStyle&quot;,&quot;elbow&quot;:&quot;vertical&quot;,&quot;curved&quot;:0,&quot;rounded&quot;:0};" vertex="1" parent="1">
          <mxGeometry x="200" y="280" width="100" height="320" as="geometry" />
        </mxCell>
        <mxCell id="V9H647g_ZsTylHFqTL_g-13" value="" style="html=1;points=[];perimeter=orthogonalPerimeter;outlineConnect=0;targetShapes=umlLifeline;portConstraint=eastwest;newEdgeStyle={&quot;edgeStyle&quot;:&quot;elbowEdgeStyle&quot;,&quot;elbow&quot;:&quot;vertical&quot;,&quot;curved&quot;:0,&quot;rounded&quot;:0};" vertex="1" parent="V9H647g_ZsTylHFqTL_g-8">
          <mxGeometry x="45" y="50" width="10" height="200" as="geometry" />
        </mxCell>
        <mxCell id="V9H647g_ZsTylHFqTL_g-9" value=":generator" style="shape=umlLifeline;perimeter=lifelinePerimeter;whiteSpace=wrap;html=1;container=1;dropTarget=0;collapsible=0;recursiveResize=0;outlineConnect=0;portConstraint=eastwest;newEdgeStyle={&quot;edgeStyle&quot;:&quot;elbowEdgeStyle&quot;,&quot;elbow&quot;:&quot;vertical&quot;,&quot;curved&quot;:0,&quot;rounded&quot;:0};" vertex="1" parent="1">
          <mxGeometry x="340" y="280" width="100" height="300" as="geometry" />
        </mxCell>
        <mxCell id="V9H647g_ZsTylHFqTL_g-14" value="" style="html=1;points=[];perimeter=orthogonalPerimeter;outlineConnect=0;targetShapes=umlLifeline;portConstraint=eastwest;newEdgeStyle={&quot;edgeStyle&quot;:&quot;elbowEdgeStyle&quot;,&quot;elbow&quot;:&quot;vertical&quot;,&quot;curved&quot;:0,&quot;rounded&quot;:0};" vertex="1" parent="V9H647g_ZsTylHFqTL_g-9">
          <mxGeometry x="45" y="60" width="10" height="50" as="geometry" />
        </mxCell>
        <mxCell id="V9H647g_ZsTylHFqTL_g-10" value=":estimator" style="shape=umlLifeline;perimeter=lifelinePerimeter;whiteSpace=wrap;html=1;container=1;dropTarget=0;collapsible=0;recursiveResize=0;outlineConnect=0;portConstraint=eastwest;newEdgeStyle={&quot;edgeStyle&quot;:&quot;elbowEdgeStyle&quot;,&quot;elbow&quot;:&quot;vertical&quot;,&quot;curved&quot;:0,&quot;rounded&quot;:0};" vertex="1" parent="1">
          <mxGeometry x="480" y="280" width="100" height="300" as="geometry" />
        </mxCell>
        <mxCell id="V9H647g_ZsTylHFqTL_g-16" value="" style="html=1;points=[];perimeter=orthogonalPerimeter;outlineConnect=0;targetShapes=umlLifeline;portConstraint=eastwest;newEdgeStyle={&quot;edgeStyle&quot;:&quot;elbowEdgeStyle&quot;,&quot;elbow&quot;:&quot;vertical&quot;,&quot;curved&quot;:0,&quot;rounded&quot;:0};" vertex="1" parent="V9H647g_ZsTylHFqTL_g-10">
          <mxGeometry x="45" y="70" width="10" height="30" as="geometry" />
        </mxCell>
        <mxCell id="V9H647g_ZsTylHFqTL_g-11" value=":runner" style="shape=umlLifeline;perimeter=lifelinePerimeter;whiteSpace=wrap;html=1;container=1;dropTarget=0;collapsible=0;recursiveResize=0;outlineConnect=0;portConstraint=eastwest;newEdgeStyle={&quot;edgeStyle&quot;:&quot;elbowEdgeStyle&quot;,&quot;elbow&quot;:&quot;vertical&quot;,&quot;curved&quot;:0,&quot;rounded&quot;:0};" vertex="1" parent="1">
          <mxGeometry x="620" y="280" width="100" height="300" as="geometry" />
        </mxCell>
        <mxCell id="V9H647g_ZsTylHFqTL_g-22" value="" style="html=1;points=[];perimeter=orthogonalPerimeter;outlineConnect=0;targetShapes=umlLifeline;portConstraint=eastwest;newEdgeStyle={&quot;edgeStyle&quot;:&quot;elbowEdgeStyle&quot;,&quot;elbow&quot;:&quot;vertical&quot;,&quot;curved&quot;:0,&quot;rounded&quot;:0};" vertex="1" parent="V9H647g_ZsTylHFqTL_g-11">
          <mxGeometry x="45" y="130" width="10" height="30" as="geometry" />
        </mxCell>
        <mxCell id="V9H647g_ZsTylHFqTL_g-12" value=":evaluator" style="shape=umlLifeline;perimeter=lifelinePerimeter;whiteSpace=wrap;html=1;container=1;dropTarget=0;collapsible=0;recursiveResize=0;outlineConnect=0;portConstraint=eastwest;newEdgeStyle={&quot;edgeStyle&quot;:&quot;elbowEdgeStyle&quot;,&quot;elbow&quot;:&quot;vertical&quot;,&quot;curved&quot;:0,&quot;rounded&quot;:0};" vertex="1" parent="1">
          <mxGeometry x="760" y="280" width="100" height="300" as="geometry" />
        </mxCell>
        <mxCell id="V9H647g_ZsTylHFqTL_g-26" value="" style="html=1;points=[];perimeter=orthogonalPerimeter;outlineConnect=0;targetShapes=umlLifeline;portConstraint=eastwest;newEdgeStyle={&quot;edgeStyle&quot;:&quot;elbowEdgeStyle&quot;,&quot;elbow&quot;:&quot;vertical&quot;,&quot;curved&quot;:0,&quot;rounded&quot;:0};" vertex="1" parent="V9H647g_ZsTylHFqTL_g-12">
          <mxGeometry x="45" y="180" width="10" height="30" as="geometry" />
        </mxCell>
        <mxCell id="V9H647g_ZsTylHFqTL_g-15" value="next()" style="edgeStyle=elbowEdgeStyle;rounded=0;orthogonalLoop=1;jettySize=auto;html=1;elbow=vertical;curved=0;" edge="1" parent="1" source="V9H647g_ZsTylHFqTL_g-13" target="V9H647g_ZsTylHFqTL_g-14">
          <mxGeometry relative="1" as="geometry">
            <Array as="points">
              <mxPoint x="310" y="340" />
            </Array>
          </mxGeometry>
        </mxCell>
        <mxCell id="V9H647g_ZsTylHFqTL_g-17" value="check()" style="edgeStyle=elbowEdgeStyle;rounded=0;orthogonalLoop=1;jettySize=auto;html=1;elbow=vertical;curved=0;" edge="1" parent="1" source="V9H647g_ZsTylHFqTL_g-14" target="V9H647g_ZsTylHFqTL_g-16">
          <mxGeometry relative="1" as="geometry">
            <Array as="points">
              <mxPoint x="440" y="350" />
            </Array>
          </mxGeometry>
        </mxCell>
        <mxCell id="V9H647g_ZsTylHFqTL_g-18" value="decision:boolean" style="edgeStyle=elbowEdgeStyle;rounded=0;orthogonalLoop=1;jettySize=auto;html=1;elbow=vertical;curved=0;dashed=1;" edge="1" parent="1" source="V9H647g_ZsTylHFqTL_g-16" target="V9H647g_ZsTylHFqTL_g-14">
          <mxGeometry relative="1" as="geometry">
            <Array as="points">
              <mxPoint x="440" y="380" />
            </Array>
          </mxGeometry>
        </mxCell>
        <mxCell id="V9H647g_ZsTylHFqTL_g-19" value="scenario:YAML" style="edgeStyle=elbowEdgeStyle;rounded=0;orthogonalLoop=1;jettySize=auto;html=1;elbow=vertical;curved=0;dashed=1;" edge="1" parent="1" source="V9H647g_ZsTylHFqTL_g-14" target="V9H647g_ZsTylHFqTL_g-13">
          <mxGeometry x="0.0031" relative="1" as="geometry">
            <Array as="points">
              <mxPoint x="310" y="390" />
            </Array>
            <mxPoint as="offset" />
          </mxGeometry>
        </mxCell>
        <mxCell id="V9H647g_ZsTylHFqTL_g-21" value="run(scenario)" style="edgeStyle=elbowEdgeStyle;rounded=0;orthogonalLoop=1;jettySize=auto;html=1;elbow=vertical;curved=0;" edge="1" parent="1" source="V9H647g_ZsTylHFqTL_g-13" target="V9H647g_ZsTylHFqTL_g-22">
          <mxGeometry relative="1" as="geometry">
            <Array as="points">
              <mxPoint x="640" y="410" />
            </Array>
          </mxGeometry>
        </mxCell>
        <mxCell id="V9H647g_ZsTylHFqTL_g-23" value="result:Path" style="edgeStyle=elbowEdgeStyle;rounded=0;orthogonalLoop=1;jettySize=auto;html=1;elbow=vertical;curved=0;dashed=1;" edge="1" parent="1" source="V9H647g_ZsTylHFqTL_g-22" target="V9H647g_ZsTylHFqTL_g-13">
          <mxGeometry relative="1" as="geometry">
            <Array as="points">
              <mxPoint x="440" y="440" />
            </Array>
          </mxGeometry>
        </mxCell>
        <mxCell id="V9H647g_ZsTylHFqTL_g-27" value="validate(result)" style="edgeStyle=elbowEdgeStyle;rounded=0;orthogonalLoop=1;jettySize=auto;html=1;elbow=vertical;curved=0;" edge="1" parent="1" source="V9H647g_ZsTylHFqTL_g-13" target="V9H647g_ZsTylHFqTL_g-26">
          <mxGeometry relative="1" as="geometry">
            <Array as="points">
              <mxPoint x="780" y="460" />
            </Array>
          </mxGeometry>
        </mxCell>
        <mxCell id="V9H647g_ZsTylHFqTL_g-28" value="evaluation:boolean" style="edgeStyle=elbowEdgeStyle;rounded=0;orthogonalLoop=1;jettySize=auto;html=1;elbow=vertical;curved=0;dashed=1;" edge="1" parent="1" source="V9H647g_ZsTylHFqTL_g-26" target="V9H647g_ZsTylHFqTL_g-13">
          <mxGeometry relative="1" as="geometry">
            <Array as="points">
              <mxPoint x="510" y="490" />
            </Array>
          </mxGeometry>
        </mxCell>
        <mxCell id="V9H647g_ZsTylHFqTL_g-31" value="generate scenarios" style="shape=umlFrame;whiteSpace=wrap;html=1;pointerEvents=0;width=72;height=30;" vertex="1" parent="1">
          <mxGeometry x="414" y="530" width="90" height="50" as="geometry" />
        </mxCell>
        <mxCell id="V9H647g_ZsTylHFqTL_g-32" value="create(n-1)" style="edgeStyle=elbowEdgeStyle;rounded=0;orthogonalLoop=1;jettySize=auto;html=1;elbow=vertical;curved=0;" edge="1" parent="1" source="V9H647g_ZsTylHFqTL_g-13" target="V9H647g_ZsTylHFqTL_g-31">
          <mxGeometry relative="1" as="geometry">
            <mxPoint x="240" y="540" as="sourcePoint" />
            <mxPoint x="402.02" y="543.6999999999999" as="targetPoint" />
            <Array as="points">
              <mxPoint x="340" y="530" />
            </Array>
          </mxGeometry>
        </mxCell>
      </root>
    </mxGraphModel>
  </diagram>
</mxfile>
